<svg width="18" height="17" viewBox="0 0 18 17" fill="none" xmlns="http://www.w3.org/2000/svg">
<path d="M16.6829 8.00571L17.1829 8.01532C17.1871 7.79638 17.0483 7.60018 16.8405 7.53118C16.6327 7.46218 16.4041 7.53644 16.2766 7.71443L16.6829 8.00571ZM5.12577 1L5.57163 1.2263C5.67086 1.03078 5.63114 0.793417 5.47365 0.640864C5.31616 0.488311 5.07765 0.456161 4.88539 0.561571L5.12577 1ZM16.2766 7.71443C15.137 9.30434 13.2752 10.3386 11.1718 10.3386V11.3386C13.6112 11.3386 15.77 10.1377 17.0893 8.29699L16.2766 7.71443ZM11.1718 10.3386C7.70564 10.3386 4.89579 7.52874 4.89579 4.0626H3.89579C3.89579 8.08102 7.15336 11.3386 11.1718 11.3386V10.3386ZM4.89579 4.0626C4.89579 3.04091 5.13954 2.0776 5.57163 1.2263L4.67991 0.773703C4.17828 1.76203 3.89579 2.88005 3.89579 4.0626H4.89579ZM1.56519 7.85257C1.56519 5.0879 3.09985 2.68095 5.36614 1.43843L4.88539 0.561571C2.31181 1.97257 0.565186 4.70824 0.565186 7.85257H1.56519ZM8.8748 15.1622C4.83781 15.1622 1.56519 11.8896 1.56519 7.85257H0.565186C0.565186 12.4418 4.28553 16.1622 8.8748 16.1622V15.1622ZM16.183 7.99609C16.1067 11.9667 12.8639 15.1622 8.8748 15.1622V16.1622C13.4097 16.1622 17.096 12.5296 17.1829 8.01532L16.183 7.99609Z" fill="#202328"/>
</svg>
